<?xml version="1.0" encoding="UTF-8" standalone="no"?>
<!DOCTYPE svg PUBLIC "-//W3C//DTD SVG 1.1//EN" "http://www.w3.org/Graphics/SVG/1.1/DTD/svg11.dtd">
<svg width="100%" height="100%" viewBox="0 0 250 87" version="1.1" xmlns="http://www.w3.org/2000/svg" xmlns:xlink="http://www.w3.org/1999/xlink" xml:space="preserve" xmlns:serif="http://www.serif.com/" style="fill-rule:evenodd;clip-rule:evenodd;stroke-linejoin:round;stroke-miterlimit:2;">
    <g transform="matrix(0.0544078,0,0,0.0463325,107.4,19.8392)">
        <g transform="matrix(4.06,0,0,4.06,-1879.07,-1032.22)">
            <path d="M1045,288.75C1045,242.527 1013.04,205 973.68,205L111.32,205C71.957,205 40,242.527 40,288.75L40,456.25C40,502.473 71.957,540 111.32,540L973.68,540C1013.04,540 1045,502.473 1045,456.25L1045,288.75Z" style="fill:rgb(152,152,152);"/>
        </g>
        <g transform="matrix(1216.87,0,0,1127.47,-1535.32,874.741)">
            <path d="M0.26,-0.126C0.216,-0.132 0.181,-0.167 0.175,-0.211L0.175,-0.7L0.05,-0.7L0.05,-0.223C0.05,-0.188 0.058,-0.155 0.073,-0.125C0.094,-0.081 0.13,-0.045 0.174,-0.023C0.204,-0.008 0.237,-0 0.272,-0L0.627,-0L0.627,-0.125L0.26,-0.126Z" style="fill:rgb(177,15,8);fill-rule:nonzero;"/>
        </g>
        <g transform="matrix(1216.87,0,0,-1127.47,-1117.24,86.8009)">
            <path d="M0.711,-0.697L0.556,-0.697L0.361,-0.452L0.275,-0.561L0.117,-0.561L0.282,-0.35L0.299,-0.329L0.299,-0.001L0.424,-0.001L0.424,-0.331L0.439,-0.35C0.439,-0.35 0.693,-0.673 0.711,-0.697Z" style="fill:rgb(177,15,8);"/>
        </g>
        <g transform="matrix(1216.87,0,0,-1127.47,-1146.3,87.7713)">
            <path d="M0.71,0.002L0.71,0L0.709,0L0.71,0.002Z" style="fill:rgb(121,72,191);"/>
        </g>
        <g transform="matrix(1216.87,0,0,1127.47,-577.028,874.741)">
            <path d="M0.511,-0.7L0.239,-0.7C0.135,-0.7 0.051,-0.615 0.051,-0.511L0.051,-0.507C0.051,-0.467 0.063,-0.43 0.084,-0.4C0.091,-0.389 0.099,-0.379 0.108,-0.37C0.142,-0.337 0.188,-0.317 0.239,-0.317L0.491,-0.317C0.544,-0.317 0.588,-0.274 0.588,-0.221C0.588,-0.168 0.544,-0.125 0.491,-0.125L0.272,-0.125C0.219,-0.125 0.176,-0.168 0.176,-0.221L0.114,-0.221L0.284,-0L0.491,-0C0.498,-0 0.505,-0 0.512,-0.001L0.709,-0.257C0.703,-0.296 0.686,-0.332 0.662,-0.361C0.659,-0.364 0.657,-0.367 0.654,-0.37C0.614,-0.414 0.556,-0.442 0.491,-0.442L0.239,-0.442C0.204,-0.442 0.175,-0.471 0.175,-0.506L0.175,-0.51C0.175,-0.545 0.204,-0.574 0.239,-0.574L0.523,-0.574C0.558,-0.574 0.587,-0.545 0.587,-0.51L0.587,-0.506L0.66,-0.507L0.511,-0.7Z" style="fill:rgb(177,15,8);"/>
        </g>
        <g transform="matrix(1825.3,0,0,1691.2,-45.123,1069.51)">
            <path d="M0.025,0.003L0.027,0.001L0.025,0.001L0.025,0.003Z" style="fill:rgb(121,72,191);"/>
        </g>
        <g transform="matrix(1825.3,0,0,1691.2,-141.556,1069.51)">
            <path d="M-0.064,-0.817L0.297,-0.349L0.028,0.001L0.186,0.001L0.377,-0.246L0.681,0.144L0.837,0.144L0.838,0.146L0.838,0.144L0.839,0.144L0.456,-0.349L0.727,-0.7L0.568,-0.7L0.376,-0.451L0.094,-0.817L-0.064,-0.817Z"/>
        </g>
        <g transform="matrix(1216.87,0,0,1127.47,863.132,874.741)">
            <path d="M0.498,-0.141L0.578,-0.244L0.444,-0.419L0.912,-0.864L0.741,-0.867L0.37,-0.521L0.277,-0.436L0.174,-0.342L0.174,-0.7L0.154,-0.7L0.056,-0.573L0.056,-0.125L0.152,-0L0.174,-0L0.174,-0.173L0.351,-0.334L0.498,-0.141Z" style="fill:rgb(177,15,8);"/>
        </g>
        <g transform="matrix(1216.87,0,0,1127.47,888.186,873.3)">
            <path d="M0.654,-0.12L0.578,-0.021L0.593,-0L0.747,-0L0.654,-0.12Z" style="fill:rgb(177,15,8);"/>
        </g>
        <g transform="matrix(1216.87,0,0,-1127.47,1296.97,84.3893)">
            <path d="M0.399,-0.01L0.463,-0.01L0.463,-0.331L0.478,-0.35L0.749,-0.701L0.592,-0.701L0.4,-0.452L0.206,-0.701L0.053,-0.701L0.321,-0.35L0.338,-0.329L0.338,-0.07L0.399,-0.01Z" style="fill:rgb(177,15,8);"/>
        </g>
    </g>
</svg>
